<mxfile host="app.diagrams.net" agent="Mozilla/5.0 (Windows NT 10.0; Win64; x64) AppleWebKit/537.36 (KHTML, like Gecko) Chrome/140.0.0.0 Safari/537.36" version="28.2.4">
  <diagram name="PÃ¡gina-1" id="1Cxu800fvTq1gt4TGOpW">
    <mxGraphModel dx="1426" dy="785" grid="1" gridSize="10" guides="1" tooltips="1" connect="1" arrows="1" fold="1" page="1" pageScale="1" pageWidth="1654" pageHeight="2336" math="0" shadow="0">
      <root>
        <mxCell id="0" />
        <mxCell id="1" parent="0" />
        <mxCell id="Vv9LEQBYmcNoHFTwAlhK-2" value="Equipa" style="rounded=0;whiteSpace=wrap;html=1;" vertex="1" parent="1">
          <mxGeometry x="440" y="280" width="130" height="60" as="geometry" />
        </mxCell>
        <mxCell id="Vv9LEQBYmcNoHFTwAlhK-3" value="" style="endArrow=none;html=1;rounded=0;exitX=0.967;exitY=0.617;exitDx=0;exitDy=0;exitPerimeter=0;" edge="1" parent="1" source="Vv9LEQBYmcNoHFTwAlhK-4">
          <mxGeometry width="50" height="50" relative="1" as="geometry">
            <mxPoint x="370" y="320" as="sourcePoint" />
            <mxPoint x="440" y="340" as="targetPoint" />
          </mxGeometry>
        </mxCell>
        <mxCell id="Vv9LEQBYmcNoHFTwAlhK-4" value="&lt;span id=&quot;docs-internal-guid-fb074735-7fff-1467-12a6-5c1d7fd0b527&quot;&gt;&lt;span style=&quot;font-size: 12pt; font-family: Calibri, sans-serif; background-color: transparent; font-variant-numeric: normal; font-variant-east-asian: normal; font-variant-alternates: normal; font-variant-position: normal; font-variant-emoji: normal; text-decoration-line: underline; text-decoration-skip-ink: none; vertical-align: baseline; white-space-collapse: preserve;&quot;&gt;NumInterno&lt;/span&gt;&lt;/span&gt;" style="ellipse;whiteSpace=wrap;html=1;" vertex="1" parent="1">
          <mxGeometry x="260" y="310" width="120" height="60" as="geometry" />
        </mxCell>
        <mxCell id="Vv9LEQBYmcNoHFTwAlhK-5" value="" style="endArrow=none;html=1;rounded=0;entryX=0.123;entryY=1.033;entryDx=0;entryDy=0;exitX=0.983;exitY=0.267;exitDx=0;exitDy=0;entryPerimeter=0;exitPerimeter=0;" edge="1" parent="1" source="Vv9LEQBYmcNoHFTwAlhK-8" target="Vv9LEQBYmcNoHFTwAlhK-2">
          <mxGeometry width="50" height="50" relative="1" as="geometry">
            <mxPoint x="380" y="410" as="sourcePoint" />
            <mxPoint x="440" y="390" as="targetPoint" />
          </mxGeometry>
        </mxCell>
        <mxCell id="Vv9LEQBYmcNoHFTwAlhK-8" value="Nome" style="ellipse;whiteSpace=wrap;html=1;" vertex="1" parent="1">
          <mxGeometry x="300" y="380" width="120" height="60" as="geometry" />
        </mxCell>
        <mxCell id="Vv9LEQBYmcNoHFTwAlhK-9" value="" style="endArrow=none;html=1;rounded=0;entryX=0;entryY=1;entryDx=0;entryDy=0;exitX=0.558;exitY=-0.033;exitDx=0;exitDy=0;exitPerimeter=0;" edge="1" parent="1" source="Vv9LEQBYmcNoHFTwAlhK-10">
          <mxGeometry width="50" height="50" relative="1" as="geometry">
            <mxPoint x="460" y="360" as="sourcePoint" />
            <mxPoint x="520" y="340" as="targetPoint" />
          </mxGeometry>
        </mxCell>
        <mxCell id="Vv9LEQBYmcNoHFTwAlhK-10" value="&lt;span id=&quot;docs-internal-guid-864a7e43-7fff-2307-8ba5-d3fcd2a51fee&quot;&gt;&lt;span style=&quot;font-size: 12pt; font-family: Calibri, sans-serif; background-color: transparent; font-variant-numeric: normal; font-variant-east-asian: normal; font-variant-alternates: normal; font-variant-position: normal; font-variant-emoji: normal; vertical-align: baseline; white-space-collapse: preserve;&quot;&gt;Morada&lt;/span&gt;&lt;/span&gt;" style="ellipse;whiteSpace=wrap;html=1;" vertex="1" parent="1">
          <mxGeometry x="470" y="380" width="120" height="60" as="geometry" />
        </mxCell>
        <mxCell id="Vv9LEQBYmcNoHFTwAlhK-12" value="" style="endArrow=none;html=1;rounded=0;entryX=0.392;entryY=1.033;entryDx=0;entryDy=0;entryPerimeter=0;" edge="1" parent="1" target="Vv9LEQBYmcNoHFTwAlhK-13">
          <mxGeometry width="50" height="50" relative="1" as="geometry">
            <mxPoint x="490" y="280" as="sourcePoint" />
            <mxPoint x="510" y="230" as="targetPoint" />
          </mxGeometry>
        </mxCell>
        <mxCell id="Vv9LEQBYmcNoHFTwAlhK-13" value="Morada" style="ellipse;whiteSpace=wrap;html=1;" vertex="1" parent="1">
          <mxGeometry x="460" y="180" width="120" height="60" as="geometry" />
        </mxCell>
        <mxCell id="Vv9LEQBYmcNoHFTwAlhK-14" value="" style="endArrow=none;html=1;rounded=0;exitX=1;exitY=0.5;exitDx=0;exitDy=0;entryX=0;entryY=0.367;entryDx=0;entryDy=0;entryPerimeter=0;" edge="1" parent="1" source="Vv9LEQBYmcNoHFTwAlhK-13" target="Vv9LEQBYmcNoHFTwAlhK-20">
          <mxGeometry width="50" height="50" relative="1" as="geometry">
            <mxPoint x="570" y="200" as="sourcePoint" />
            <mxPoint x="620" y="150" as="targetPoint" />
          </mxGeometry>
        </mxCell>
        <mxCell id="Vv9LEQBYmcNoHFTwAlhK-15" value="" style="endArrow=none;html=1;rounded=0;exitX=0.283;exitY=0;exitDx=0;exitDy=0;exitPerimeter=0;entryX=1;entryY=1;entryDx=0;entryDy=0;" edge="1" parent="1" source="Vv9LEQBYmcNoHFTwAlhK-13" target="Vv9LEQBYmcNoHFTwAlhK-17">
          <mxGeometry width="50" height="50" relative="1" as="geometry">
            <mxPoint x="500" y="180" as="sourcePoint" />
            <mxPoint x="470" y="140" as="targetPoint" />
          </mxGeometry>
        </mxCell>
        <mxCell id="Vv9LEQBYmcNoHFTwAlhK-16" value="" style="endArrow=none;html=1;rounded=0;entryX=0.4;entryY=1.017;entryDx=0;entryDy=0;entryPerimeter=0;" edge="1" parent="1" target="Vv9LEQBYmcNoHFTwAlhK-18">
          <mxGeometry width="50" height="50" relative="1" as="geometry">
            <mxPoint x="520" y="180" as="sourcePoint" />
            <mxPoint x="540" y="140" as="targetPoint" />
          </mxGeometry>
        </mxCell>
        <mxCell id="Vv9LEQBYmcNoHFTwAlhK-17" value="Rua" style="ellipse;whiteSpace=wrap;html=1;" vertex="1" parent="1">
          <mxGeometry x="360" y="100" width="120" height="60" as="geometry" />
        </mxCell>
        <mxCell id="Vv9LEQBYmcNoHFTwAlhK-18" value="&lt;span id=&quot;docs-internal-guid-223733fb-7fff-65e1-ff7a-13754291de61&quot;&gt;&lt;span style=&quot;font-size: 12pt; font-family: Calibri, sans-serif; background-color: transparent; font-variant-numeric: normal; font-variant-east-asian: normal; font-variant-alternates: normal; font-variant-position: normal; font-variant-emoji: normal; vertical-align: baseline; white-space-collapse: preserve;&quot;&gt;NumPorta&lt;/span&gt;&lt;/span&gt;" style="ellipse;whiteSpace=wrap;html=1;" vertex="1" parent="1">
          <mxGeometry x="490" y="90" width="120" height="60" as="geometry" />
        </mxCell>
        <mxCell id="Vv9LEQBYmcNoHFTwAlhK-20" value="Localidade" style="ellipse;whiteSpace=wrap;html=1;" vertex="1" parent="1">
          <mxGeometry x="600" y="190" width="120" height="60" as="geometry" />
        </mxCell>
        <mxCell id="Vv9LEQBYmcNoHFTwAlhK-21" value="CodPostal" style="ellipse;whiteSpace=wrap;html=1;" vertex="1" parent="1">
          <mxGeometry x="620" y="110" width="120" height="60" as="geometry" />
        </mxCell>
        <mxCell id="Vv9LEQBYmcNoHFTwAlhK-22" value="" style="endArrow=none;html=1;rounded=0;entryX=0.025;entryY=0.7;entryDx=0;entryDy=0;entryPerimeter=0;exitX=0.992;exitY=0.283;exitDx=0;exitDy=0;exitPerimeter=0;" edge="1" parent="1" source="Vv9LEQBYmcNoHFTwAlhK-13" target="Vv9LEQBYmcNoHFTwAlhK-21">
          <mxGeometry width="50" height="50" relative="1" as="geometry">
            <mxPoint x="570" y="199" as="sourcePoint" />
            <mxPoint x="588" y="170" as="targetPoint" />
          </mxGeometry>
        </mxCell>
        <mxCell id="Vv9LEQBYmcNoHFTwAlhK-23" value="" style="endArrow=none;html=1;rounded=0;exitX=0;exitY=0.5;exitDx=0;exitDy=0;entryX=1.008;entryY=0.65;entryDx=0;entryDy=0;entryPerimeter=0;" edge="1" parent="1" target="Vv9LEQBYmcNoHFTwAlhK-24" source="Vv9LEQBYmcNoHFTwAlhK-13">
          <mxGeometry width="50" height="50" relative="1" as="geometry">
            <mxPoint x="460" y="220" as="sourcePoint" />
            <mxPoint x="436" y="180" as="targetPoint" />
          </mxGeometry>
        </mxCell>
        <mxCell id="Vv9LEQBYmcNoHFTwAlhK-24" value="Pais" style="ellipse;whiteSpace=wrap;html=1;" vertex="1" parent="1">
          <mxGeometry x="310" y="180" width="120" height="60" as="geometry" />
        </mxCell>
        <mxCell id="Vv9LEQBYmcNoHFTwAlhK-25" value="" style="endArrow=none;html=1;rounded=0;exitX=1;exitY=0.5;exitDx=0;exitDy=0;entryX=0;entryY=0.5;entryDx=0;entryDy=0;" edge="1" parent="1" source="Vv9LEQBYmcNoHFTwAlhK-2" target="Vv9LEQBYmcNoHFTwAlhK-27">
          <mxGeometry width="50" height="50" relative="1" as="geometry">
            <mxPoint x="570" y="323.51" as="sourcePoint" />
            <mxPoint x="600" y="310" as="targetPoint" />
          </mxGeometry>
        </mxCell>
        <mxCell id="Vv9LEQBYmcNoHFTwAlhK-27" value="&lt;span id=&quot;docs-internal-guid-02809a7c-7fff-371c-dbe4-12a1901e9a56&quot;&gt;&lt;span style=&quot;font-size: 12pt; font-family: Calibri, sans-serif; background-color: transparent; font-variant-numeric: normal; font-variant-east-asian: normal; font-variant-alternates: normal; font-variant-position: normal; font-variant-emoji: normal; vertical-align: baseline; white-space-collapse: preserve;&quot;&gt;AnoFundacao&lt;/span&gt;&lt;/span&gt;" style="ellipse;whiteSpace=wrap;html=1;" vertex="1" parent="1">
          <mxGeometry x="600" y="300" width="120" height="50" as="geometry" />
        </mxCell>
        <mxCell id="Vv9LEQBYmcNoHFTwAlhK-28" value="Jogador" style="rounded=0;whiteSpace=wrap;html=1;" vertex="1" parent="1">
          <mxGeometry x="980" y="190" width="130" height="60" as="geometry" />
        </mxCell>
        <mxCell id="Vv9LEQBYmcNoHFTwAlhK-29" value="" style="endArrow=none;html=1;rounded=0;exitX=0.967;exitY=0.617;exitDx=0;exitDy=0;exitPerimeter=0;" edge="1" parent="1" source="Vv9LEQBYmcNoHFTwAlhK-30">
          <mxGeometry width="50" height="50" relative="1" as="geometry">
            <mxPoint x="910" y="230" as="sourcePoint" />
            <mxPoint x="980" y="250" as="targetPoint" />
          </mxGeometry>
        </mxCell>
        <mxCell id="Vv9LEQBYmcNoHFTwAlhK-30" value="&lt;span id=&quot;docs-internal-guid-fb074735-7fff-1467-12a6-5c1d7fd0b527&quot;&gt;&lt;span style=&quot;font-size: 12pt; font-family: Calibri, sans-serif; background-color: transparent; font-variant-numeric: normal; font-variant-east-asian: normal; font-variant-alternates: normal; font-variant-position: normal; font-variant-emoji: normal; text-decoration-line: underline; text-decoration-skip-ink: none; vertical-align: baseline; white-space-collapse: preserve;&quot;&gt;NumJogador&lt;/span&gt;&lt;/span&gt;" style="ellipse;whiteSpace=wrap;html=1;" vertex="1" parent="1">
          <mxGeometry x="800" y="220" width="120" height="60" as="geometry" />
        </mxCell>
        <mxCell id="Vv9LEQBYmcNoHFTwAlhK-31" value="" style="endArrow=none;html=1;rounded=0;entryX=0.123;entryY=1.033;entryDx=0;entryDy=0;exitX=0.983;exitY=0.267;exitDx=0;exitDy=0;entryPerimeter=0;exitPerimeter=0;" edge="1" parent="1" source="Vv9LEQBYmcNoHFTwAlhK-32" target="Vv9LEQBYmcNoHFTwAlhK-28">
          <mxGeometry width="50" height="50" relative="1" as="geometry">
            <mxPoint x="920" y="320" as="sourcePoint" />
            <mxPoint x="980" y="300" as="targetPoint" />
          </mxGeometry>
        </mxCell>
        <mxCell id="Vv9LEQBYmcNoHFTwAlhK-32" value="GÃ©nero" style="ellipse;whiteSpace=wrap;html=1;" vertex="1" parent="1">
          <mxGeometry x="840" y="290" width="120" height="60" as="geometry" />
        </mxCell>
        <mxCell id="Vv9LEQBYmcNoHFTwAlhK-33" value="" style="endArrow=none;html=1;rounded=0;entryX=0;entryY=1;entryDx=0;entryDy=0;exitX=0.558;exitY=-0.033;exitDx=0;exitDy=0;exitPerimeter=0;" edge="1" parent="1" source="Vv9LEQBYmcNoHFTwAlhK-34">
          <mxGeometry width="50" height="50" relative="1" as="geometry">
            <mxPoint x="1000" y="270" as="sourcePoint" />
            <mxPoint x="1060" y="250" as="targetPoint" />
          </mxGeometry>
        </mxCell>
        <mxCell id="Vv9LEQBYmcNoHFTwAlhK-34" value="&lt;span id=&quot;docs-internal-guid-864a7e43-7fff-2307-8ba5-d3fcd2a51fee&quot;&gt;&lt;span style=&quot;font-size: 12pt; font-family: Calibri, sans-serif; background-color: transparent; font-variant-numeric: normal; font-variant-east-asian: normal; font-variant-alternates: normal; font-variant-position: normal; font-variant-emoji: normal; vertical-align: baseline; white-space-collapse: preserve;&quot;&gt;Posicao&lt;/span&gt;&lt;/span&gt;" style="ellipse;whiteSpace=wrap;html=1;" vertex="1" parent="1">
          <mxGeometry x="1010" y="290" width="120" height="60" as="geometry" />
        </mxCell>
        <mxCell id="Vv9LEQBYmcNoHFTwAlhK-37" value="" style="endArrow=none;dashed=1;html=1;rounded=0;exitX=1;exitY=0.5;exitDx=0;exitDy=0;" edge="1" parent="1" source="Vv9LEQBYmcNoHFTwAlhK-28">
          <mxGeometry width="50" height="50" relative="1" as="geometry">
            <mxPoint x="1110" y="240" as="sourcePoint" />
            <mxPoint x="1160" y="220" as="targetPoint" />
          </mxGeometry>
        </mxCell>
        <mxCell id="Vv9LEQBYmcNoHFTwAlhK-38" value="Idade" style="ellipse;whiteSpace=wrap;html=1;dashed=1;dashPattern=8 8;" vertex="1" parent="1">
          <mxGeometry x="1160" y="190" width="120" height="60" as="geometry" />
        </mxCell>
        <mxCell id="Vv9LEQBYmcNoHFTwAlhK-39" value="Jogo" style="rounded=0;whiteSpace=wrap;html=1;" vertex="1" parent="1">
          <mxGeometry x="950" y="510" width="130" height="60" as="geometry" />
        </mxCell>
        <mxCell id="Vv9LEQBYmcNoHFTwAlhK-40" value="" style="endArrow=none;html=1;rounded=0;exitX=0.967;exitY=0.617;exitDx=0;exitDy=0;exitPerimeter=0;" edge="1" parent="1" source="Vv9LEQBYmcNoHFTwAlhK-41">
          <mxGeometry width="50" height="50" relative="1" as="geometry">
            <mxPoint x="880" y="550" as="sourcePoint" />
            <mxPoint x="950" y="570" as="targetPoint" />
          </mxGeometry>
        </mxCell>
        <mxCell id="Vv9LEQBYmcNoHFTwAlhK-41" value="&lt;span id=&quot;docs-internal-guid-fb074735-7fff-1467-12a6-5c1d7fd0b527&quot;&gt;&lt;span style=&quot;font-size: 12pt; font-family: Calibri, sans-serif; background-color: transparent; font-variant-numeric: normal; font-variant-east-asian: normal; font-variant-alternates: normal; font-variant-position: normal; font-variant-emoji: normal; text-decoration-line: underline; text-decoration-skip-ink: none; vertical-align: baseline; white-space-collapse: preserve;&quot;&gt;NumJogo&lt;/span&gt;&lt;/span&gt;" style="ellipse;whiteSpace=wrap;html=1;" vertex="1" parent="1">
          <mxGeometry x="770" y="540" width="120" height="60" as="geometry" />
        </mxCell>
        <mxCell id="Vv9LEQBYmcNoHFTwAlhK-42" value="" style="endArrow=none;html=1;rounded=0;entryX=0.123;entryY=1.033;entryDx=0;entryDy=0;exitX=0.983;exitY=0.267;exitDx=0;exitDy=0;entryPerimeter=0;exitPerimeter=0;" edge="1" parent="1" source="Vv9LEQBYmcNoHFTwAlhK-43" target="Vv9LEQBYmcNoHFTwAlhK-39">
          <mxGeometry width="50" height="50" relative="1" as="geometry">
            <mxPoint x="890" y="640" as="sourcePoint" />
            <mxPoint x="950" y="620" as="targetPoint" />
          </mxGeometry>
        </mxCell>
        <mxCell id="Vv9LEQBYmcNoHFTwAlhK-43" value="Data" style="ellipse;whiteSpace=wrap;html=1;" vertex="1" parent="1">
          <mxGeometry x="810" y="610" width="120" height="60" as="geometry" />
        </mxCell>
        <mxCell id="Vv9LEQBYmcNoHFTwAlhK-44" value="" style="endArrow=none;html=1;rounded=0;entryX=0;entryY=1;entryDx=0;entryDy=0;exitX=0.558;exitY=-0.033;exitDx=0;exitDy=0;exitPerimeter=0;" edge="1" parent="1" source="Vv9LEQBYmcNoHFTwAlhK-45">
          <mxGeometry width="50" height="50" relative="1" as="geometry">
            <mxPoint x="970" y="590" as="sourcePoint" />
            <mxPoint x="1030" y="570" as="targetPoint" />
          </mxGeometry>
        </mxCell>
        <mxCell id="Vv9LEQBYmcNoHFTwAlhK-45" value="&lt;span id=&quot;docs-internal-guid-864a7e43-7fff-2307-8ba5-d3fcd2a51fee&quot;&gt;&lt;span style=&quot;font-size: 12pt; font-family: Calibri, sans-serif; background-color: transparent; font-variant-numeric: normal; font-variant-east-asian: normal; font-variant-alternates: normal; font-variant-position: normal; font-variant-emoji: normal; vertical-align: baseline; white-space-collapse: preserve;&quot;&gt;Local&lt;/span&gt;&lt;/span&gt;" style="ellipse;whiteSpace=wrap;html=1;" vertex="1" parent="1">
          <mxGeometry x="960" y="620" width="120" height="60" as="geometry" />
        </mxCell>
        <mxCell id="Vv9LEQBYmcNoHFTwAlhK-48" value="" style="endArrow=none;html=1;rounded=0;entryX=1;entryY=1;entryDx=0;entryDy=0;exitX=0;exitY=0;exitDx=0;exitDy=0;" edge="1" parent="1" source="Vv9LEQBYmcNoHFTwAlhK-49" target="Vv9LEQBYmcNoHFTwAlhK-39">
          <mxGeometry width="50" height="50" relative="1" as="geometry">
            <mxPoint x="1110" y="570" as="sourcePoint" />
            <mxPoint x="1170" y="550" as="targetPoint" />
          </mxGeometry>
        </mxCell>
        <mxCell id="Vv9LEQBYmcNoHFTwAlhK-49" value="&lt;span id=&quot;docs-internal-guid-864a7e43-7fff-2307-8ba5-d3fcd2a51fee&quot;&gt;&lt;span style=&quot;font-size: 12pt; font-family: Calibri, sans-serif; background-color: transparent; font-variant-numeric: normal; font-variant-east-asian: normal; font-variant-alternates: normal; font-variant-position: normal; font-variant-emoji: normal; vertical-align: baseline; white-space-collapse: preserve;&quot;&gt;Visitado&lt;/span&gt;&lt;/span&gt;" style="ellipse;whiteSpace=wrap;html=1;" vertex="1" parent="1">
          <mxGeometry x="1100" y="590" width="120" height="60" as="geometry" />
        </mxCell>
        <mxCell id="Vv9LEQBYmcNoHFTwAlhK-50" value="" style="endArrow=none;html=1;rounded=0;exitX=1;exitY=0.5;exitDx=0;exitDy=0;entryX=0;entryY=0.5;entryDx=0;entryDy=0;" edge="1" parent="1" target="Vv9LEQBYmcNoHFTwAlhK-51">
          <mxGeometry width="50" height="50" relative="1" as="geometry">
            <mxPoint x="1080" y="525" as="sourcePoint" />
            <mxPoint x="1110" y="525" as="targetPoint" />
          </mxGeometry>
        </mxCell>
        <mxCell id="Vv9LEQBYmcNoHFTwAlhK-51" value="&lt;span id=&quot;docs-internal-guid-02809a7c-7fff-371c-dbe4-12a1901e9a56&quot;&gt;&lt;span style=&quot;font-size: 12pt; font-family: Calibri, sans-serif; background-color: transparent; font-variant-numeric: normal; font-variant-east-asian: normal; font-variant-alternates: normal; font-variant-position: normal; font-variant-emoji: normal; vertical-align: baseline; white-space-collapse: preserve;&quot;&gt;Visitado&lt;/span&gt;&lt;/span&gt;" style="ellipse;whiteSpace=wrap;html=1;" vertex="1" parent="1">
          <mxGeometry x="1110" y="500" width="120" height="50" as="geometry" />
        </mxCell>
        <mxCell id="Vv9LEQBYmcNoHFTwAlhK-52" value="" style="endArrow=none;html=1;rounded=0;exitX=0;exitY=0;exitDx=0;exitDy=0;entryX=1;entryY=1;entryDx=0;entryDy=0;" edge="1" parent="1" target="Vv9LEQBYmcNoHFTwAlhK-53" source="Vv9LEQBYmcNoHFTwAlhK-39">
          <mxGeometry width="50" height="50" relative="1" as="geometry">
            <mxPoint x="950" y="520" as="sourcePoint" />
            <mxPoint x="926" y="480" as="targetPoint" />
          </mxGeometry>
        </mxCell>
        <mxCell id="Vv9LEQBYmcNoHFTwAlhK-53" value="Resultado?" style="ellipse;whiteSpace=wrap;html=1;" vertex="1" parent="1">
          <mxGeometry x="816" y="440" width="120" height="60" as="geometry" />
        </mxCell>
        <mxCell id="Vv9LEQBYmcNoHFTwAlhK-54" value="Relationship" style="shape=rhombus;perimeter=rhombusPerimeter;whiteSpace=wrap;html=1;align=center;" vertex="1" parent="1">
          <mxGeometry x="380" y="560" width="120" height="60" as="geometry" />
        </mxCell>
      </root>
    </mxGraphModel>
  </diagram>
</mxfile>
